<svg version="1.1"
     viewBox="0 0 900 1000"
     xmlns="http://www.w3.org/2000/svg">

  <!-- ========================================================= -->
  <!-- Board base -->
  <!-- ========================================================= -->
  <rect width="900" height="1000" fill="#b35900"/>
  <rect x="44" y="44" width="812" height="912" stroke="#000" stroke-width="4" fill="#b35900"/>
  <rect x="50" y="50" width="800" height="900" stroke="#000" stroke-width="4" fill="#cc9900"/>

  <!-- ========================================================= -->
  <!-- Board squares -->
  <!-- ========================================================= -->
  <defs>
    <rect id="square" 
          width="100" 
          height="100" 
          stroke="#000" 
          stroke-width="4" 
          fill="#cc9900"/>

    <g id="row">
      <use href="#square" x="0" width="100%" height="100%"/>
      <use href="#square" x="100" width="100%" height="100%"/>
      <use href="#square" x="200" width="100%" height="100%"/>
      <use href="#square" x="300" width="100%" height="100%"/>
      <use href="#square" x="400" width="100%" height="100%"/>
      <use href="#square" x="500" width="100%" height="100%"/>
      <use href="#square" x="600" width="100%" height="100%"/>
      <use href="#square" x="700" width="100%" height="100%"/>
    </g>

    <g id="half">
      <use href="#row" y="0" width="100%" height="100%"/>
      <use href="#row" y="100" width="100%" height="100%"/>
      <use href="#row" y="200" width="100%" height="100%"/>
      <use href="#row" y="300" width="100%" height="100%"/>
    </g>
  </defs>

  <use href="#half"
       transform="translate(0,-100)"
       x="50"
       y="150"
       width="100%"
       height="100%"/>
  <use href="#half"
       transform="rotate(180,450,550)"
       x="50"
       y="150"
       width="100%"
       height="100%"/>

</svg>
